<?xml version="1.0" encoding="utf-8"?>
<svg width="140px" height="49px" viewBox="0 0 140 49" version="1.1" xmlns:xlink="http://www.w3.org/1999/xlink" xmlns="http://www.w3.org/2000/svg">
  <defs>
    <path d="M0 0L44.6507 0L44.6507 36.0264L0 36.0264L0 0Z" id="path_1" />
    <path d="M0 0L39.6243 0L39.6243 36.0264L0 36.0264L0 0Z" transform="matrix(1 0 0 1 -1.9683917E-14 0)" id="path_2" />
    <path d="M0 48.6912L139.75 48.6912L139.75 0L0 0L0 48.6912Z" id="path_3" />
    <clipPath id="mask_1">
      <use xlink:href="#path_1" />
    </clipPath>
    <clipPath id="mask_2">
      <use xlink:href="#path_2" />
    </clipPath>
    <clipPath id="mask_3">
      <use xlink:href="#path_3" />
    </clipPath>
  </defs>
  <g id="Group-25">
    <g id="Group-3">
      <path d="M0 0L44.6507 0L44.6507 36.0264L0 36.0264L0 0Z" id="Clip-2" fill="none" fill-rule="evenodd" stroke="none" />
      <g clip-path="url(#mask_1)">
        <path d="M37.7144 13.5307C36.3608 14.8832 33.8246 15.3904 29.7672 15.3904L22.4949 15.3904L6.59548 15.3904L6.59548 5.41223L22.4949 5.41223L29.4297 5.41223C35.0078 5.41223 37.8851 6.59617 38.0544 9.13235L38.2229 12.1776C38.2229 12.6861 38.0544 13.0239 37.7144 13.5307L37.7144 13.5307ZM38.0544 27.231C37.3783 29.4289 34.5023 30.6123 29.4297 30.6123L22.4949 30.6123L6.59548 30.6123L6.59548 20.8045L22.4949 20.8045L29.9362 20.8045C35.3489 20.8045 38.0544 21.9881 38.0544 24.3567L38.0544 27.231ZM44.6508 11.8399L44.6508 8.96337C44.6508 6.93536 43.8046 4.9051 41.9435 3.38371C40.422 2.02887 38.5609 1.01461 36.3608 0.507651C34.6712 0.168467 32.4718 0 29.2607 0L22.4949 0L2.19699 0C0.676983 0 0 0.676984 0 2.19872L0 33.6559C0 35.1786 0.676983 36.0264 2.19699 36.0264L22.4949 36.0264L30.1041 36.0264C30.9506 36.0264 31.7971 36.0264 32.8112 35.8559C34.6712 35.6883 36.3608 35.3486 37.7144 34.8418C42.2827 33.318 44.6508 30.6123 44.6508 26.3837L44.6508 24.1863C44.6508 21.9881 43.8046 20.2953 42.2827 18.7722L42.113 18.6051C41.9435 18.2671 41.9435 18.098 41.9435 17.9283C41.9435 17.7588 42.113 17.4206 42.2827 17.2515C43.8046 15.898 44.6508 14.0366 44.6508 11.8399L44.6508 11.8399Z" transform="translate(-8.6570784E-05 0)" id="Fill-1" fill="#E31837" fill-rule="evenodd" stroke="none" />
      </g>
    </g>
    <path d="M41.0991 27.0613C41.0991 31.1193 39.2387 33.6559 35.516 34.8418C33.1481 35.6883 29.5975 36.0263 25.1999 36.0263L2.53791 36.0263C1.01409 36.0263 0.16812 35.1784 0.16812 33.6559L0.16812 32.9812C0.16812 31.4572 1.01409 30.6121 2.53791 30.6121L25.1999 30.6121C31.4576 30.6121 34.5021 29.4287 34.5021 27.231L34.5021 24.1863C34.5021 21.6488 31.4576 20.465 25.3701 20.465L16.5743 20.465C5.57983 20.465 0 17.5903 0 11.8399L0 9.13218C0 5.41206 1.85798 2.70516 5.57983 1.35154C7.94841 0.337107 11.3309 0 15.8973 0L28.675 0C30.368 0 31.045 0.67681 31.045 2.19855L31.045 3.04504C31.045 4.56834 30.368 5.41206 28.675 5.41206L15.8973 5.41206C9.8102 5.41206 6.59531 6.59617 6.59531 9.13218L6.59531 11.6701C6.59531 13.1934 8.1167 14.2071 10.8239 14.7134C11.8368 14.8831 13.7005 14.8831 16.5743 14.8831L25.3701 14.8831C29.2583 14.8831 32.6417 15.5601 35.3484 16.5741C39.0684 18.0978 41.0991 20.6354 41.0991 23.8463L41.0991 27.0613Z" transform="translate(51.753906 0)" id="Fill-4" fill="#E31837" fill-rule="evenodd" stroke="none" />
    <g id="Group-8" transform="translate(100.12598 0)">
      <path d="M0 0L39.6243 0L39.6243 36.0264L0 36.0264L0 0Z" transform="matrix(1 0 0 1 -1.9683917E-14 0)" id="Clip-7" fill="none" fill-rule="evenodd" stroke="none" />
      <g clip-path="url(#mask_2)">
        <path d="M39.6243 33.6559C39.6243 35.1786 38.9466 36.0264 37.2571 36.0264L17.929 36.0264C13.87 36.0264 10.9924 35.8561 9.63931 35.6885C3.21195 34.3345 0 31.2882 0 26.5542L0 2.19872C0 0.676984 0.842853 0 2.36685 0L4.22864 0C5.74761 0 6.59479 0.676984 6.59479 2.19872L6.59479 26.5542C6.59479 28.4153 8.11878 29.7668 11.1619 30.2738C12.3457 30.443 14.7136 30.6123 17.929 30.6123L37.2571 30.6123C38.9466 30.6123 39.6243 31.4574 39.6243 32.9812L39.6243 33.6559Z" transform="matrix(1 0 0 1 -1.9683917E-14 0)" id="Fill-6" fill="#E31837" fill-rule="evenodd" stroke="none" />
      </g>
    </g>
    <path d="M1.36366 5.96559C0.61067 5.96559 0 5.35492 0 4.60176L0 1.36384C0 0.61067 0.610497 0 1.36366 0C1.36366 0 1.87374 0 2.21431 0L4.26067 0L4.26067 1.53507L1.53421 1.53507L1.53421 4.43225L4.26067 4.43225L4.26067 5.96559L1.87374 5.96559L1.36366 5.96559Z" transform="translate(15.037109 42.573975)" id="Fill-9" fill="#00ADEE" fill-rule="evenodd" stroke="none" />
    <path d="M0 0L8.52012 0L8.52012 1.5349L4.94077 1.5349L4.94077 5.96559L3.40621 5.96559L3.40621 1.5349L0 1.5349L0 0Z" transform="translate(44.768555 42.574097)" id="Fill-11" fill="#00ADEE" fill-rule="evenodd" stroke="none" />
    <path d="M3.92062 2.89804L3.24208 2.89804L3.92062 1.5349L4.59916 2.89804L3.92062 2.89804ZM5.62139 1.36453C5.62139 1.36453 5.1004 0 3.92062 0C2.74083 0 2.21985 1.36453 2.21985 1.36453L0 5.96559L1.70718 5.96559L2.55851 4.43225L3.92062 4.43225L5.28272 4.43225L6.13406 5.96559L7.84124 5.96559L5.62139 1.36453Z" transform="translate(59.88867 42.574097)" id="Fill-13" fill="#00ADEE" fill-rule="evenodd" stroke="none" />
    <path d="M0 48.6912L139.75 48.6912L139.75 0L0 0L0 48.6912Z" id="Clip-16" fill="none" fill-rule="evenodd" stroke="none" />
    <g clip-path="url(#mask_3)">
      <path d="M0 5.96559L1.70164 5.96559L1.70164 0L0 0L0 5.96559Z" transform="translate(75.5459 42.573975)" id="Fill-15" fill="#00ADEE" fill-rule="evenodd" stroke="none" />
      <path d="M1.62303 3.69726L5.87902 3.69726L5.87902 4.77611L1.38184 4.77611L1.38184 4.33893L0 4.36854L0 4.76243C0 5.26108 0.125701 5.60026 0.37035 5.79955C0.61119 5.99347 1.06378 6.09233 1.72259 6.09233L5.59888 6.09233C6.27344 6.09233 6.72101 5.98689 6.96618 5.78206C7.19715 5.57776 7.28458 5.20048 7.28458 4.65335L7.28458 3.22165C7.28458 2.9228 7.11283 2.74204 7.01622 2.65824C6.85294 2.51834 6.56934 2.41152 6.20055 2.36892C6.10324 2.35923 5.97321 2.35542 5.84491 2.35888C5.77635 2.35663 5.73081 2.35888 5.65515 2.35888L1.38842 2.35888L1.38842 1.29735L5.89841 1.29735L5.89841 1.72882L7.28458 1.69938L7.28458 1.30757C7.28458 0.817575 7.15767 0.481853 6.91527 0.28551C6.67184 0.096613 6.21803 0 5.55715 0L1.66753 0C0.989331 0 0.604957 0.101634 0.362558 0.302998C0.128125 0.504188 0.00727195 0.877308 0.00727195 1.41941L0.00727195 3.03136" transform="translate(131.29297 42.598877)" id="Fill-17" fill="#00ADEE" fill-rule="evenodd" stroke="none" />
      <path d="M1.36505 0L2.21604 0L8.52272 0L8.52272 1.5349L1.5349 1.5349L1.5349 4.43225L8.52272 4.43225L8.52272 5.96559L2.04705 5.96559L1.36366 5.96559C0.61067 5.96559 0 5.35492 0 4.60158L0 1.36366C0 0.61067 0.61067 0 1.36384 0L1.36505 0Z" transform="translate(0.16699219 42.574097)" id="Fill-18" fill="#00ADEE" fill-rule="evenodd" stroke="none" />
      <path d="M2.38554 5.96559L0 5.96559L0 4.43225L2.55453 4.43225L2.55453 1.53507L0 1.53507L0 0L2.38554 0L2.89389 0C3.64705 0 4.25772 0.61067 4.25772 1.36384L4.25772 1.87547L4.25772 4.09307L4.25772 4.60176C4.25772 5.35492 3.64705 5.96559 2.89406 5.96559L2.38554 5.96559Z" transform="translate(19.297852 42.573975)" id="Fill-19" fill="#00ADEE" fill-rule="evenodd" stroke="none" />
      <path d="M8.35252 5.45619L8.35252 4.94404L8.35252 0.172605L6.81849 0.172605L6.81849 4.6033L6.81624 4.60486L2.72854 0.515599C2.38554 0.172605 1.87374 0.00258036 1.53403 0.00258036C1.37526 -0.00746185 0.975306 0.0150466 0.975306 0.0150466C0.429391 0.0514063 0 0.35475 0 0.854783L0 1.36694L0 6.1382L1.53403 6.1382L1.53403 1.70768L5.62468 5.62674L5.78812 5.77339C6.10878 6.09422 6.58752 6.25334 6.90541 6.25334C7.05396 6.26269 7.44007 6.24174 7.44007 6.24174C7.95083 6.20763 8.35252 5.92402 8.35252 5.45619" transform="translate(85.31152 42.401367)" id="Fill-20" fill="#00ADEE" fill-rule="evenodd" stroke="none" />
      <path d="M8.35252 5.45619L8.35252 4.94404L8.35252 0.172605L6.81849 0.172605L6.81849 4.6033L6.81624 4.60486L2.72854 0.515599C2.38554 0.172605 1.87374 0.00258036 1.53403 0.00258036C1.37526 -0.00746185 0.975306 0.0150466 0.975306 0.0150466C0.429391 0.0514063 0 0.35475 0 0.854783L0 1.36694L0 6.1382L1.53403 6.1382L1.53403 1.70768L5.62468 5.62674L5.78812 5.77339C6.10878 6.09422 6.58769 6.25334 6.90541 6.25334C7.05396 6.26269 7.44007 6.24174 7.44007 6.24174C7.95083 6.20763 8.35252 5.92402 8.35252 5.45619" transform="translate(29.986328 42.401367)" id="Fill-21" fill="#00ADEE" fill-rule="evenodd" stroke="none" />
      <path d="M6.98886 2.21829L4.26067 2.21829L1.53351 2.21829L1.53351 1.5349L4.26067 1.5349L6.98886 1.5349L6.98886 2.21829ZM8.00936 2.89804C8.17938 2.72802 8.35079 2.55747 8.35079 2.38693L8.35079 1.87547L8.35079 1.19416C8.35079 0.534661 7.74445 0 6.63444 0L4.26067 0L0 0L0 5.96559L1.53351 5.96559L1.53351 3.75094L4.26067 3.75094L6.98886 3.75094L6.98886 5.96559L8.52082 5.96559L8.52082 3.9227C8.52082 3.13092 8.00936 2.89804 8.00936 2.89804L8.00936 2.89804Z" transform="translate(117.03223 42.574097)" id="Fill-22" fill="#00ADEE" fill-rule="evenodd" stroke="none" />
      <path d="M1.61576 0.665902C0.239801 0.665902 0 0.374505 0 0" transform="translate(131.30078 45.63025)" id="Fill-23" fill="#00ADEE" fill-rule="evenodd" stroke="none" />
      <path d="M1.47343 5.96559C0.659669 5.96559 0 5.30592 0 4.49216L0 4.29183L0 4.09307L0 1.47343C0 0.659669 0.659669 0 1.47326 0L1.5259 0L2.04411 0L8.34837 0L8.34837 1.53507L1.53473 1.53507L1.53473 2.21829L8.34837 2.21829L8.34837 3.75094L1.53473 3.75094L1.53473 4.43225L8.34837 4.43225L8.34837 5.96559L1.47343 5.96559Z" transform="translate(100.77246 42.573975)" id="Fill-24" fill="#00ADEE" fill-rule="evenodd" stroke="none" />
    </g>
  </g>
</svg>